<?xml version="1.0" encoding="utf-8"?><!DOCTYPE svg PUBLIC "-//W3C//DTD SVG 1.1//EN" "http://www.w3.org/Graphics/SVG/1.1/DTD/svg11.dtd"><svg version="1.1" xmlns="http://www.w3.org/2000/svg" xmlns:xlink="http://www.w3.org/1999/xlink" x="0px" y="0px" viewBox="0 0 90.497 125" enable-background="new 0 0 90.497 100" xml:space="preserve"><path fill="#010101" d="M45.249,0C20.3,0,0,20.296,0,45.248v18.994c0,9.246,7.521,16.764,16.76,16.764
	c3.853,0,6.981,3.134,6.981,6.979v9.502c0,1.388,1.124,2.514,2.516,2.514h37.988c1.385,0,2.511-1.126,2.511-2.514v-9.502
	c0-3.845,3.134-6.979,6.986-6.979c9.238,0,16.756-7.518,16.756-16.764V45.248C90.497,20.296,70.201,0,45.249,0z M47.195,45.444
	L6.463,34.61C11.141,17.582,26.75,5.028,45.242,5.027c22.175,0.001,40.227,18.042,40.227,40.221v10.377L81,54.437
	c0.745-2.194,1.171-4.565,1.171-7.052C82.171,37.108,51.105,36.462,47.195,45.444z M57.262,94.968v-6.983
	c0-1.384-1.13-2.514-2.519-2.514c-1.388,0-2.514,1.13-2.514,2.514v6.983h-4.465v-6.983c0-1.384-1.128-2.514-2.516-2.514
	c0,0-0.001,0-0.002,0s-0.001,0-0.002,0c-1.389,0-2.516,1.13-2.516,2.514v6.983h-4.463v-6.983c0-1.384-1.128-2.514-2.512-2.514
	c0,0-0.001,0-0.002,0s-0.001,0-0.002,0c-1.386,0-2.514,1.13-2.514,2.514v6.983h-4.467v-6.983c0-6.617-5.39-12.007-12.009-12.007
	c-6.474,0-11.736-5.262-11.736-11.735V45.248c0-2.222,0.189-4.399,0.537-6.523l41.364,11.002
	c1.035,9.854,8.494,17.505,17.554,17.505c6.167,0,11.591-3.545,14.757-8.911l6.233,1.658v4.263c0.002,1.523-0.297,2.975-0.826,4.312
	c-1.723,4.343-5.958,7.424-10.905,7.424c-6.621,0-12.011,5.39-12.011,12.007v6.983H57.262z"/><path fill="#010101" d="M46.774,60.919c-0.337-1.006-1.277-1.688-2.337-1.688c-1.066,0-2.007,0.683-2.344,1.688L37.43,74.906
	c-0.249,0.755-0.124,1.581,0.341,2.226c0.466,0.642,1.209,1.027,2,1.027H49.1c0.797,0,1.54-0.386,2.009-1.027
	c0.456-0.645,0.587-1.471,0.337-2.226L46.774,60.919z"/><path fill="#010101" d="M21.596,45.807c-4.756,0-8.632,3.87-8.632,8.631c0,4.761,3.876,8.63,8.632,8.63
	c4.757,0,8.626-3.869,8.626-8.63C30.223,49.676,26.353,45.807,21.596,45.807z"/></svg>